<svg width="80" height="80" viewBox="0 0 80 80" fill="none" xmlns="http://www.w3.org/2000/svg">
    <path d="M40.0082 7L31.5317 16.9118L24.0366 15.1175L28.8041 34.1927" stroke-width="5" stroke="#000000" stroke-linecap="round" stroke-linejoin="round" />
    <path d="M40.0083 7L48.4849 16.9118L55.9778 15.118L51.2166 34.1575" stroke-width="5" stroke="#000000" stroke-linecap="round" stroke-linejoin="round" />
    <path d="M26.0483 54.3702L8.31689 43.6198L13.078 40.7279L12.2426 31.2347L21.7358 32.0701L24.6286 27.3076L28.8042 34.1929" stroke-width="5" stroke="#000000" stroke-linecap="round" stroke-linejoin="round" />
    <path d="M51.2168 34.1578L55.3711 27.3076L58.2639 32.0701L67.7571 31.2347L66.9217 40.7279L71.6828 43.6198L53.9657 54.3615" stroke-width="5" stroke="#000000" stroke-linecap="round" stroke-linejoin="round" />
    <path d="M53.9656 54.3613L56.0083 61L40.0083 56.7065L24.0083 61L26.0483 54.37" stroke-width="5" stroke="#000000" stroke-linecap="round" stroke-linejoin="round" />
    <path d="M40.0083 41L40.0085 73" stroke-width="5" stroke="#000000" stroke-linecap="round" stroke-linejoin="round" />
</svg>